<svg xmlns="http://www.w3.org/2000/svg" viewBox="0 0 194.38 28.58"><defs><style>.cls-1{fill:#5dce90;}.cls-2{fill:#181719;}</style></defs><title>mymarks-logo</title><g id="Layer_2" data-name="Layer 2"><g id="state_1" data-name="state 1"><g id="MyMarks_logo" data-name="MyMarks logo"><rect class="cls-1" x="12.63" y="-3.58" width="4" height="24.67" transform="translate(2.44 20.68) rotate(-75.26)"/><path d="M56.29,21a.23.23,0,0,1-.25.2H53.21A.23.23,0,0,1,53,21V11.46l-4.42,8.91a.34.34,0,0,1-.2.12H45.67a.33.33,0,0,1-.22-.12l-4.71-9.13V21a.23.23,0,0,1-.25.2H37.63a.2.2,0,0,1-.22-.2V4a.2.2,0,0,1,.22-.2h2.9a.34.34,0,0,1,.22.12L47,16.67l6-12.75a.34.34,0,0,1,.22-.12H56a.23.23,0,0,1,.25.2Z"/><path d="M78.64,3.82c.22,0,.32.17.2.32l-6.28,8.93V21a.23.23,0,0,1-.25.2h-2.8a.23.23,0,0,1-.25-.2V13.07c-2.06-2.93-4.19-6-6.28-8.93-.12-.15,0-.32.2-.32h3.45s.15,0,.17.07l4.12,5.88L75,3.89s.15-.07.17-.07Z"/><path d="M87.15,15.31a2.8,2.8,0,1,1,0-5.61,2.8,2.8,0,1,1,0,5.61Z"/><path d="M116.4,21a.23.23,0,0,1-.25.2h-2.83a.23.23,0,0,1-.25-.2V11.46l-4.42,8.91a.34.34,0,0,1-.2.12h-2.68a.33.33,0,0,1-.22-.12l-4.71-9.13V21a.23.23,0,0,1-.25.2H97.74a.2.2,0,0,1-.22-.2V4a.2.2,0,0,1,.22-.2h2.9a.34.34,0,0,1,.22.12l6.23,12.75,6-12.75a.34.34,0,0,1,.22-.12h2.88a.23.23,0,0,1,.25.2Z"/><path d="M132.79,19.23h-5.63l-.67,1.84a.23.23,0,0,1-.22.12h-3.05c-.2,0-.3-.12-.22-.27l6.77-17.47a.26.26,0,0,1,.45,0L137,20.91c.07.15,0,.27-.2.27h-3.08a.22.22,0,0,1-.2-.12Zm-4.56-2.93h3.5L130,11.09Z"/><path d="M148.47,14.17h-1.86V21a.23.23,0,0,1-.25.2h-2.83a.22.22,0,0,1-.22-.2V4a.22.22,0,0,1,.22-.2h5.61c1,0,5.88,0,5.88,5.16a4.59,4.59,0,0,1-3.2,4.66c1.09,2.46,2.26,4.84,3.35,7.27.07.15,0,.27-.2.27h-3.1a.33.33,0,0,1-.22-.12ZM146.61,11h2.53c.72,0,2.58-.1,2.58-2s-2.06-2-2.58-2h-2.53Z"/><path d="M169.51,12.65l6.95,8.21c.15.15,0,.32-.2.32h-3.7a.48.48,0,0,1-.2-.07l-5.06-6.25c-.42.47-.84,1-1.31,1.51V21a.23.23,0,0,1-.25.2h-2.83a.23.23,0,0,1-.25-.2V4a.23.23,0,0,1,.25-.2h2.83A.23.23,0,0,1,166,4v8l6.5-8.16a.47.47,0,0,1,.2-.07h3.52c.22,0,.35.17.2.32Z"/><path d="M182.53,16.32c0-.1.1-.17.25-.17h2.8c.12,0,.25.07.25.17A2,2,0,0,0,188,18.23a2,2,0,0,0,2.21-2A2.31,2.31,0,0,0,188,14.12a6.75,6.75,0,0,1-2.63-.57,4.92,4.92,0,0,1-2.88-4.61A5.3,5.3,0,0,1,188,3.6a5.12,5.12,0,0,1,5.43,5,.23.23,0,0,1-.25.2h-2.78a.25.25,0,0,1-.25-.2A1.93,1.93,0,0,0,188,6.77a2,2,0,0,0-2.21,2.16A2.12,2.12,0,0,0,188,11a6.56,6.56,0,0,1,2.58.57,5,5,0,0,1,2.9,4.69c0,3.35-2.65,5.16-5.48,5.16C185,21.36,182.58,19.6,182.53,16.32Z"/><rect class="cls-2" x="36.55" y="25.48" width="157.83" height="3"/><polygon class="cls-2" points="1.12 28.47 0 25.69 15.31 19.55 28.69 25.72 27.43 28.44 15.23 22.82 1.12 28.47"/><path class="cls-2" d="M28.63,28.58H.05V0H28.63Zm-25.58-3H25.63V3H3.05Z"/></g></g></g></svg>